<?xml version="1.0" encoding="utf-8" ?><svg xmlns="http://www.w3.org/2000/svg" xmlns:xlink="http://www.w3.org/1999/xlink" width="500" height="500" viewBox="0 0 500 500"><path fill="#2B2A29" d="M182.869 96.3555C189.291 96.0543 196.173 96.2576 202.64 96.259L235.822 96.2595L335.798 96.2228L386.743 96.2071L401.187 96.1948C404.605 96.1942 409.015 96.0838 412.333 96.5948C420.967 97.9821 428.995 101.9 435.402 107.852C451.083 122.645 449.222 138.606 449.235 157.998C449.245 173.349 448.67 183.482 437.552 195.426C421.825 212.322 402.545 208.664 381.99 208.993C363.131 209.195 344.137 208.806 325.256 209.114C324.45 237.012 325.428 265.231 325.052 293.154C325.028 294.977 325.026 296.775 325.06 298.598C327.31 298.786 330.975 298.644 333.338 298.634L348.625 298.592L384.94 298.692C392.259 298.698 399.661 298.588 406.897 298.711C423.045 298.987 436.567 307.697 444.236 321.751C449.483 330.36 449.147 338.946 449.275 348.475C449.524 367.053 450.095 380.507 435.306 394.215C428.104 399.57 421.192 403.881 411.956 404.549C404.006 405.125 396.058 404.892 388.093 404.861L346.948 404.809L251.885 404.779C234.502 404.781 217.123 404.835 199.746 404.781C186.89 404.741 176.562 401.204 167.388 391.744C154.561 378.518 154.324 363.531 154.606 346.346C149.151 345.908 142.467 346.068 136.913 346.088L111.736 346.115C102.565 346.102 93.9098 346.556 85.0298 343.89C78.0609 341.797 72.8022 338.527 67.5881 333.503C58.46 324.708 54.7443 313.362 54.7157 300.852C54.6645 278.467 54.5636 256.045 54.5847 233.643L54.612 214.307C54.6538 204.945 54.2721 199.883 57.5405 190.753C63.924 172.922 80.663 161.118 99.7552 162.193C102.36 162.34 105.842 162.158 108.481 162.136C111.242 147.959 117.697 134.762 127.193 123.879C141.42 107.753 161.417 97.8677 182.869 96.3555Z"/><path fill="#EEEDE2" d="M230.087 103.625L356.855 103.554L388.926 103.557C396.019 103.534 404.875 103.026 411.75 104.234C430.12 107.688 442.527 123.712 441.73 142.282C440.999 159.958 445.403 176.341 431.725 190.378C417.565 204.908 399.409 201.775 380.658 201.834L325.063 201.992C324.751 199.324 324.384 196.961 323.725 194.345C320.923 183.049 313.681 173.363 303.639 167.482C292.557 160.937 283.918 161.725 271.669 161.728L246.768 161.735L215.752 161.724C207.795 161.707 194.087 161.055 187.024 163.096C174.031 166.853 165.953 174.197 159.323 185.514C153.18 198.127 154.021 205.833 154.025 219.337L154.056 247.54L154.217 338.894C140.487 338.528 125.905 339.113 111.954 338.862C96.597 338.931 84.2184 339.983 72.5068 327.994C61.6803 316.912 62.1201 306.075 62.0754 291.699L62.0493 272.546C62.0287 251.386 62.0392 230.202 62.0374 209.053C62.0363 197.26 64.8247 188.113 73.4944 179.744C85.7328 167.93 99.5211 169.352 115.083 169.65C119.65 133.107 145.979 107.489 182.912 103.945C189.23 103.339 196.028 103.659 202.406 103.664L230.087 103.625Z"/><path fill="#EEEDE2" d="M325.374 306.172L325.838 306.164C343.28 305.898 361.743 306.243 379.284 306.231L397.248 306.204C410.364 306.181 420.618 306.268 430.867 316.294C439.72 324.955 441.911 334.9 441.956 346.828C442.009 361.142 443.415 375.618 432.085 386.581C420.207 398.496 409.955 397.612 394.529 397.658L369.637 397.698L279.125 397.771L224.711 397.73L208.346 397.744C194 397.754 184.154 397.741 173.047 386.806C161.24 375.184 162.233 362.025 162.345 346.765L248.115 346.74L271.721 346.749C275.126 346.749 278.536 346.751 281.927 346.706C297.345 346.499 311.61 337.432 319.592 324.437C323.162 318.627 324.217 312.732 325.374 306.172Z"/><path fill="#EEEDE2" d="M196.082 169.35C199.383 168.958 207.332 169.14 211.011 169.136L240.288 169.177L269.337 169.203C281.94 169.205 292.657 168.112 303.241 176.549C311.898 183.449 315.847 191.076 317.388 201.925C299.627 202.335 281.759 201.818 263.87 201.945C248.72 202.053 236.363 209.099 228.835 222.505C223.746 231.57 224.274 238.648 224.357 248.695C224.405 253.991 224.396 259.288 224.33 264.584C224.264 280.719 229.534 292.727 243.847 301.317C252.788 306.683 261.655 306.298 271.606 306.298L290.625 306.284C299.067 306.283 309.65 305.985 317.857 306.44C316.483 315.177 313.524 321.67 307.18 327.989C301.8 333.37 294.937 337.024 287.469 338.486C283.376 339.277 276.289 339.031 271.941 339.029L248.356 339.006L162.229 339.051C161.914 329.043 162.216 317.332 162.227 307.225L162.175 250.852L162.19 219.375C162.198 213.971 161.974 204.799 162.825 199.661C163.816 193.299 166.525 187.329 170.659 182.393C177.044 174.654 186.172 170.266 196.082 169.35Z"/><path fill="#EEEDE2" d="M262.635 209.358C264.978 209.208 267.824 209.382 270.201 209.4C285.981 209.522 301.787 209.302 317.564 209.501C317.124 238.721 317.478 269.411 317.712 298.672C308.08 298.926 297.74 298.719 288.062 298.679L271.237 298.708C259.374 298.717 251.912 299.003 242.331 290.753C230.773 281.077 231.761 267.363 232.067 253.735C232.208 247.437 231.381 238.613 233.001 232.585C236.688 218.87 248.753 210.223 262.635 209.358Z"/></svg>